<?xml version="1.0" encoding="UTF-8"?>
<svg width="1000px" height="420px" viewBox="0 0 1000 420" version="1.1" xmlns="http://www.w3.org/2000/svg" xmlns:xlink="http://www.w3.org/1999/xlink">
    <title>Logo</title>
    <g id="Logo" stroke="none" stroke-width="1" fill="none" fill-rule="evenodd">
        <g id="darkbg-notag-largeSVG-Copy-4" fill-rule="nonzero">
            <polygon id="Path" fill="#597866" points="1000 0 930.555556 344.262295 500 420 72.9166667 344.262295 0 0"></polygon>
            <g id="Group-2" transform="translate(129.000000, 104.000000)" fill="#F2F2F2">
                <path d="M203.83685,16.1523133 C209.475861,16.1523133 212.295367,17.902354 212.295367,21.455467 C212.832416,25.1146431 210.01291,27.4657079 203.83685,28.5086615 C200.480295,28.8533664 197.096888,29.1715557 193.659776,29.4367134 C190.222664,29.701871 186.731847,29.9935445 183.214178,30.3382495 C175.802905,30.6741159 168.570649,30.9392736 161.517409,31.1337226 C154.254354,31.310046 147.008806,31.9210295 139.82064,32.9633106 L152.253318,32.9633106 C144.868898,34.1830359 137.538183,35.0315405 130.314877,35.6148875 C122.8962,36.1768531 115.544365,37.4015878 108.349583,39.2740635 C111.23418,40.630108 114.495312,40.9941356 117.613674,40.3081785 C120.380116,39.6251721 123.220595,39.2779031 126.072192,39.2740635 C129.428747,39.2740635 132.651039,39.2740635 135.739069,39.4066424 C138.981276,39.5101146 142.207547,39.9005773 145.379094,40.5733362 C144.087995,40.5617007 142.799747,40.6951374 141.539196,40.9710727 C140.287973,41.2484524 139.008447,41.381919 137.72615,41.3688093 C133.134383,41.7135142 128.542616,41.8726089 123.950849,41.8726089 C119.359083,41.8726089 114.874726,42.0582192 110.524631,42.4029242 C109.178467,42.2622592 107.834259,42.685474 106.818995,43.5696181 C106.0009,44.5388354 105.29814,45.5975528 104.724504,46.7249945 C102.630014,54.5559849 100.293852,62.2102034 97.7160184,69.6876502 C95.1381844,77.1650969 92.631957,84.8281541 90.197336,92.6768216 C89.3112056,95.1162723 88.47878,97.6087546 87.6732069,100.127753 C86.8676338,102.646751 86.142618,105.139233 85.4176022,107.552168 C82.4459325,116.974104 79.4563612,126.334171 76.4488883,135.632367 C73.4414153,144.930563 70.5234505,154.290629 67.6949938,163.712566 C66.1107,168.432373 64.7949306,173.072632 63.7476855,177.686376 C62.7004405,182.30012 61.626343,186.887348 60.579098,191.395028 C60.4664929,193.826555 59.1907462,196.060646 57.141986,197.414108 C55.3697252,198.289128 53.32894,197.758813 51.0464828,195.849677 C48.4105013,193.814173 46.2107043,191.281422 44.5750455,188.398746 C43.0163483,185.466468 42.2400565,182.190342 42.3194408,178.879586 C41.9566784,173.467514 42.2179281,168.032265 43.0981614,162.678451 C43.993681,157.577196 45.1498115,152.523911 46.5621258,147.537947 C49.891828,137.939239 52.899301,128.34053 55.5308398,118.662275 C58.1623786,108.984019 60.7402126,99.3057638 63.2106368,89.4949294 C63.5492818,88.6433594 63.7749252,87.7521021 63.8819477,86.8433525 C63.9202488,86.1119232 64.1416797,85.4012958 64.5264062,84.7751225 C63.6402758,86.4986475 62.8078502,88.3017198 62.0291296,90.0782763 C61.2504089,91.8548328 60.3911309,93.6844208 59.5050005,95.38143 C59.2163545,96.5888166 58.8210033,97.7688722 58.3234933,98.9080272 C57.8215384,100.045509 57.4260535,101.225964 57.141986,102.434624 C57.141986,100.525489 57.141986,98.5368065 57.383658,96.4420608 C57.6253299,94.347315 57.8401494,92.3586324 58.1892311,90.4229813 C59.4244432,85.5440798 60.8744748,80.5591153 62.1633917,75.4150562 C63.4523087,70.2709971 64.8486355,65.1799695 66.3792244,60.1419735 C66.7589042,59.4092796 67.1989779,58.7086685 67.6949938,58.0472277 C68.4053137,57.0605761 69.0253623,56.0134977 69.5478119,54.918367 C70.318971,56.9347759 70.318971,59.1596796 69.5478119,61.1760884 C68.7942221,62.5458278 68.3801186,64.0724308 68.3394523,65.6307376 C67.9827469,67.0354283 67.8023763,68.4781125 67.8024035,69.9262921 L67.8024035,74.4870043 C69.4135497,70.509639 71.1321057,66.5322737 72.9849239,62.2367192 C74.837742,57.9411647 76.6368553,53.6190944 78.3554113,48.9788349 C71.0792121,49.7680278 63.9795521,51.7109528 57.3299531,54.7327567 C50.7306248,57.7204311 43.9819814,60.3754234 37.110068,62.6874873 C38.2103258,60.7946721 39.5956301,59.0780469 41.2184909,57.5964597 C42.67306,56.42996 44.3285459,55.5317568 46.1056344,54.9448828 C50.6705487,53.5395471 55.1280532,52.2933059 59.5318529,51.1531279 C63.9356526,50.0129498 68.1246328,48.7667087 72.3673178,47.361373 C73.7636445,47.016668 75.0525615,46.6189314 76.4757407,46.1946791 C78.1673849,45.3679776 79.4535072,43.9070032 80.0471148,42.1377665 C78.9253489,42.4420539 77.7723026,42.6199586 76.6100029,42.6680819 C75.7847588,42.6524357 74.9669674,42.8248315 74.220136,43.1718815 C67.1668958,45.2577887 60.2479179,47.4851132 53.4632021,49.8538552 C46.6784864,52.2225972 39.8400658,54.5294691 32.9479402,56.7744708 C31.2025318,57.6494912 29.6450905,58.3389012 28.3293211,58.8692166 C26.9070799,59.4149188 25.4435873,59.8493485 23.9523738,60.1684892 C20.0804191,61.740518 15.7195448,61.6443974 11.922482,59.9033315 C7.89894394,58.0765409 4.73060114,54.805712 3.06117782,50.7553914 C2.55098152,48.846256 2.09449009,46.8310576 1.74540841,44.7628276 C1.30345205,42.589167 0.720447112,40.4458088 0,38.3460116 C7.06219094,36.2777817 13.8827099,34.2095517 20.4884095,32.2208691 C27.094109,30.2321864 33.7535134,28.2700195 40.4666226,26.3343684 C47.1439286,24.9555485 53.9286444,23.479504 60.8207699,21.9062351 C67.8797399,20.3162534 75.0694793,19.3578078 82.3027195,19.042532 C83.7462776,18.9585513 85.1514057,18.5504598 86.4111424,17.8493225 C87.1771456,16.5261349 87.6699838,15.0661575 87.861174,13.5537679 C88.1835345,12.4436357 88.4081403,11.3080719 88.5324849,10.1597495 C88.6313394,9.00991063 88.847249,7.87283027 89.1769434,6.76573116 L89.1769434,3.74293353 C89.2166172,2.55079165 89.3968491,1.36727661 89.7139921,0.216336301 C92.7518852,-0.416226091 95.9160325,0.355128936 98.306772,2.31108202 C100.508672,4.22021737 102.683719,6.15586848 104.778209,8.06500382 C106.112402,8.84661273 106.997374,10.2016121 107.168076,11.7241799 C107.765444,13.5418794 109.184372,14.9822101 111.007975,15.6219979 C112.698553,16.0036152 114.429709,16.181683 116.163643,16.1523133 C127.101535,16.1523133 138.030477,16.0639274 148.950468,15.8871556 C159.870459,15.7103838 170.718844,15.6219979 181.495622,15.6219979 L192.719941,15.6219979 C196.398725,15.6219979 200.131213,15.8076083 203.83685,16.1523133 Z M45.407471,136.030103 C45.7678699,138.435139 45.5844633,140.889141 44.8704223,143.215877 C43.91705,146.111646 42.5903931,148.874281 40.923114,151.435765 C41.6212774,148.996314 42.3194408,146.4508 43.0176041,143.746192 C43.7157675,141.041584 44.5213406,138.469554 45.407471,136.030103 Z M54.9400862,110.177229 C53.9307252,107.904921 54.3385282,105.261622 55.9873312,103.389192 C56.0138069,104.526574 55.9238419,105.663688 55.7188069,106.783211 C55.5576922,107.658231 55.2891679,108.798409 54.9400862,110.177229 Z M57.0614287,103.389192 L55.9873312,103.389192 C56.28134,103.41382 56.5726617,103.31793 56.7929043,103.124034 C56.8070229,102.918925 56.9037286,102.727938 57.0614287,102.593719 L57.0614287,103.389192 L57.0614287,103.389192 L57.0614287,103.389192 Z M130.583401,34.1830359 L130.583401,33.3875629 L127.656486,33.3875629 L127.656486,34.1830359 L130.583401,34.1830359 Z" id="Shape"></path>
                <path d="M105.622291,155.776414 C105.095539,158.198952 104.568788,160.437166 104.042036,162.517389 C103.52006,164.733335 103.176571,166.987544 103.014871,169.258364 C102.164288,174.385734 100.594927,179.367608 98.3531197,184.05691 C97.2078361,184.74657 95.7524029,184.641126 94.7185342,183.793591 C93.3138634,182.91586 91.970647,182.038129 90.688885,181.160398 L86.6592359,178.527204 C84.9961418,177.497863 83.8621152,175.797188 83.5514019,173.866452 C83.5514019,172.47086 83.5514019,171.233259 83.5514019,169.969326 C83.6702911,168.655285 83.8904244,167.352375 84.2098413,166.0722 C85.0702021,161.420225 85.9481213,156.838469 86.8435989,152.326931 C87.7390765,147.815393 88.6960084,143.233636 89.7143947,138.581661 C90.0567832,137.212401 90.3464965,135.764144 90.6098723,134.315888 C90.873248,132.867632 91.1629614,131.314048 91.5316874,129.760464 C93.4279929,122.861497 95.1662729,116.015194 96.7992027,109.274219 C98.4321324,102.533244 99.9070367,95.607946 101.460954,88.5246559 C101.546579,87.7259489 101.723312,86.9396567 101.987705,86.1811138 C102.330094,84.9698449 102.672482,83.732244 103.014871,82.4419793 C103.340809,81.1961913 103.772558,79.9805059 104.305412,78.8081725 C104.832163,77.6758993 105.253565,77.017601 105.622291,76.8596094 L104.832163,85.4174877 C106.144049,83.6760056 106.954632,81.6090079 107.176208,79.4401389 C107.318015,77.2505837 107.050056,75.0537933 106.38608,72.9624832 C106.38608,72.8044916 106.201717,72.6991639 105.859329,72.6991639 L104.832163,72.6991639 C105.51694,70.276626 106.122705,67.9857478 106.649456,65.8265293 C107.22229,63.5008401 107.916801,61.2068075 108.730125,58.9538947 C109.064403,58.4560676 109.238965,57.8681967 109.230539,57.2686509 C109.234679,56.6969875 109.323432,56.1290852 109.493914,55.5834072 C112.608713,47.7831769 114.706608,39.6146415 115.73592,31.2790326 C115.964251,30.1380666 116.26332,29.0123989 116.631397,27.9085451 C117.248015,26.6277483 117.989028,25.410631 118.843754,24.2747383 C118.539659,27.2262074 117.930647,30.138254 117.026461,32.9642764 C116.146297,35.955301 115.966067,39.1086568 116.49971,42.1804531 L119.133467,38.8099656 C119.425186,38.2511763 119.553007,37.6213361 119.502193,36.9930622 C119.421623,33.1926015 120.329134,29.4363093 122.135951,26.0916417 C124.048867,22.5394313 125.610196,18.8089198 126.797702,14.9532339 C128.099666,13.5750943 129.731173,12.5510896 131.538466,11.9777254 C133.78103,11.1543533 136.132848,10.6663447 138.517923,10.5294691 C141.149342,10.3725299 143.787777,10.3725299 146.419196,10.5294691 C148.824928,10.6678864 151.213537,11.0203731 153.556679,11.5827464 C156.137762,12.4604775 157.085914,14.0140616 156.401137,16.2434986 C156.129016,16.7335706 155.83007,17.2082662 155.50566,17.665423 C155.054968,18.2794486 154.658417,18.9314148 154.320469,19.6139861 C149.757775,26.6519568 145.810098,34.0698858 142.521235,41.7854741 C139.009558,50.0010373 135.857828,58.2166005 133.066045,66.4321637 C130.274262,74.647727 127.79853,82.4156473 125.796874,89.7622568 C123.795218,97.1088662 121.898913,103.296871 120.344996,108.19461 C121.136179,108.273916 121.935187,108.184159 122.68904,107.931291 C125.558275,106.390444 128.665072,105.340233 131.880854,104.824123 C135.100076,104.292428 138.367968,104.115823 141.625757,104.297484 C142.241995,104.282908 142.856305,104.371919 143.44305,104.560803 L145.260343,105.087442 C146.735571,105.727855 148.124725,106.550553 149.395342,107.536312 C150.682495,108.626509 151.51802,110.156412 151.739386,111.828417 C152.088712,112.368368 152.26342,113.002697 152.2398,113.64532 C152.258861,114.423992 152.346999,115.199437 152.503176,115.962531 L153.688367,115.435892 C154.237635,115.229302 154.80093,115.06211 155.373972,114.935585 C155.005246,116.146854 154.662857,117.226463 154.320469,118.174413 C153.97808,119.122363 153.635692,120.122976 153.293303,121.149921 C152.424163,123.914774 151.634036,126.547968 150.949259,129.049501 C150.264482,131.551035 149.474355,134.105233 148.631553,136.685762 C148.112915,138.401051 147.506349,140.088525 146.81426,141.741493 C146.103145,143.400405 145.418368,145.164645 144.733591,147.00788 C144.390731,148.541095 143.959837,150.053296 143.44305,151.536973 C142.904514,153.029583 142.447325,154.55029 142.073496,156.092397 L142.073496,156.619036 C141.731108,157.988296 141.336044,159.252229 140.914643,160.62149 C140.493241,161.99075 140.098178,163.254683 139.755789,164.650275 C139.432609,165.203033 139.25162,165.82731 139.229038,166.467179 C139.221054,167.081719 139.132507,167.69256 138.965662,168.284082 C138.942488,168.524143 138.8511,168.752565 138.702286,168.942381 C138.529236,169.208832 138.437704,169.519974 138.438911,169.837666 C138.280885,170.179981 138.096522,170.57496 137.938497,170.996271 C137.780471,171.417582 137.569771,171.838893 137.411745,172.181208 C136.726772,173.029242 136.321871,174.068879 136.252892,175.156717 C136.147541,176.297767 136.015854,177.377377 135.857828,178.395545 L136.121204,178.395545 C136.019378,179.582269 135.659853,180.732502 135.067701,181.766032 C134.725312,182.450662 135.304739,182.713982 136.753306,182.55599 C138.060224,182.425384 139.334557,182.069004 140.519579,181.502713 C140.695163,181.344721 141.573082,180.133452 143.153337,177.868906 C144.733591,175.60436 146.629897,172.971166 148.842253,169.969326 C151.107285,166.941154 153.424991,163.649662 155.848048,160.121183 C158.271105,156.592704 160.562474,153.27488 162.722156,150.246708 C164.881837,147.218536 167.357569,143.637393 170.123015,139.503279 C170.307378,139.318955 170.123015,139.871926 169.596263,141.188523 C168.999977,142.651375 168.313894,144.076011 167.541932,145.454296 C166.672792,147.376527 165.540276,149.535746 164.170722,151.931952 C165.31483,150.453244 166.353345,148.895806 167.278556,147.271199 C168.121359,146.05993 168.911486,144.901325 169.596263,143.769052 C170.06094,142.995735 170.580232,142.256562 171.15018,141.55717 C171.78868,141.22143 172.515834,141.092594 173.230849,141.188523 C173.915626,141.188523 174.179001,141.55717 174.020976,142.083808 C173.208871,143.339048 172.470181,144.64027 171.80862,145.980935 C170.518078,148.403473 168.911486,151.247321 167.015181,154.670473 C165.118875,158.093624 163.038207,161.753763 160.799513,165.808881 C158.560819,169.863998 156.3748,173.708461 154.294131,177.23694 C152.213463,180.765419 150.369833,183.793591 148.710565,186.295125 C147.83728,187.935182 146.657047,189.392278 145.234005,190.58723 C143.595477,191.904192 141.61033,192.718202 139.518751,192.930772 L135.884166,192.930772 C135.199389,192.930772 135.278401,193.141427 136.147541,193.562738 C137.016681,193.984049 137.25372,194.221037 136.911331,194.221037 C136.410917,194.747675 133.724484,193.694398 129.010058,191.113869 C127.627332,190.284246 126.360851,189.27482 125.243785,188.112028 C123.953244,186.821763 122.610027,185.478835 121.477512,184.241234 C120.442157,183.147433 119.491277,181.976692 118.633053,180.739087 C117.948276,179.685809 117.684901,179.001179 117.842926,178.658864 C118.000951,178.316549 117.842926,177.658251 117.842926,176.710301 C117.973534,175.61452 118.193751,174.531285 118.501365,173.471473 C118.843754,172.075881 119.186142,170.627624 119.528531,169.047708 L119.528531,172.444528 C119.479802,172.891542 119.571877,173.342615 119.791907,173.734792 C119.930107,173.883039 120.117116,173.976523 120.318658,173.998112 L121.872575,167.257137 C122.214964,165.519229 122.531015,163.965645 122.79439,162.570053 C122.967895,161.70015 123.091008,160.820955 123.163116,159.936859 C123.005091,159.752536 122.79439,159.936859 122.531015,160.437166 C122.267639,160.937473 122.004263,161.569439 121.740887,162.254069 C121.477512,162.9387 121.214136,163.570666 120.977098,164.070973 C120.740059,164.57128 120.476684,164.781935 120.318658,164.597612 C120.433917,163.326452 120.654148,162.067003 120.977098,160.832145 L121.740887,157.856637 L122.399327,155.223443 C122.585133,155.01401 122.679903,154.739238 122.662702,154.459817 L122.662702,153.669859 C122.657886,150.196439 123.181858,146.742517 124.216619,143.426737 C125.250367,140.076728 126.025215,136.652282 126.534326,133.183615 C126.872363,132.33003 127.136704,131.449083 127.324453,130.550422 C127.419938,129.484367 127.03348,128.431495 126.27095,127.680241 C124.507965,128.970278 122.819645,130.359327 121.214136,131.840686 C119.74641,133.246545 118.557889,134.917266 117.711238,136.764758 C116.755134,138.400756 115.671961,139.959133 114.471716,141.42551 C113.365538,142.821103 112.101334,144.295691 110.73178,145.849275 C109.435724,147.149073 108.335595,148.630381 107.465921,150.246708 C106.554284,151.977268 105.93154,153.845101 105.622291,155.776414 L105.622291,155.776414 Z" id="Path"></path>
                <path d="M166.234449,160.716308 C166.234449,160.873819 165.985669,161.110086 165.543394,161.346352 C165.14424,161.56121 164.818133,161.880022 164.603558,162.265166 C163.522528,159.895733 163.327448,157.246406 164.050713,154.757145 C164.769411,152.341978 165.598678,149.506781 166.483229,146.225304 C166.84893,148.83538 166.941523,151.473439 166.759652,154.10085 C166.593798,156.279751 166.400303,158.484904 166.234449,160.716308 Z M236.473348,119.080922 C236.81418,119.780338 236.81418,120.586659 236.473348,121.286075 C236.165447,122.020699 235.397259,122.485918 234.566034,122.441155 C233.950225,122.629464 233.305484,122.718205 232.658721,122.703673 C231.811621,122.73332 230.977576,122.911319 230.198562,123.22871 L227.43434,123.22871 C226.488703,123.234359 225.55204,123.403373 224.670117,123.727494 C221.911734,123.836733 219.256479,124.753714 217.068505,126.352676 C214.884769,127.980289 212.701033,129.502895 210.517297,130.867989 C209.079901,132.259336 207.753074,133.493171 206.315678,134.621999 C204.878283,135.750828 203.717309,136.827152 202.639262,137.850973 C198.160291,141.661832 195.09667,146.744286 193.904319,152.341978 C192.826272,155.964729 191.637656,159.692487 190.366113,163.577757 C189.058013,167.617285 187.969317,171.717974 187.104331,175.863608 C186.748582,177.223741 186.526492,178.612289 186.440917,180.011396 C186.269277,181.609942 185.850126,183.175673 185.197017,184.657968 C185.031164,185.340515 184.395392,185.865552 183.289703,186.206825 C180.975015,187.30859 178.34655,187.667829 175.79866,187.230646 C173.473472,186.296033 171.45803,184.781109 169.96615,182.846592 C168.97389,181.851475 168.227862,180.658679 167.782414,179.3551 C167.22957,177.884999 166.787294,176.729918 166.427945,175.863608 C165.868599,174.622991 165.868599,173.218957 166.427945,171.978339 C166.953147,168.539351 167.588919,165.126614 168.335259,161.766381 C169.081599,158.406148 169.772654,155.019663 170.491352,151.554423 C170.18111,151.243309 169.816344,150.985716 169.413305,150.79312 C168.908335,150.510384 168.451616,150.156305 168.058836,149.743048 C169.330379,146.487822 170.46371,143.232596 171.45883,140.056126 C172.431238,136.907403 173.660428,133.835399 175.135246,130.867989 C176.406789,127.954037 177.899469,124.96133 179.475076,121.94237 C181.050683,118.923411 182.847428,115.8782 184.644173,112.780485 C185.156035,111.765422 185.961351,110.909565 186.96612,110.312814 C188.093926,109.594499 189.140662,108.767562 190.089691,107.845143 C191.096446,107.840084 192.102606,107.892683 193.102694,108.002654 C193.926145,108.086742 194.758736,108.033436 195.562852,107.845143 C196.940169,107.502599 198.387153,107.502599 199.764471,107.845143 C201.123663,108.270604 202.44538,108.797275 203.717309,109.420252 C204.692817,109.839288 205.43597,110.630898 205.762834,111.599153 C206.20511,112.727982 206.619743,113.883062 206.979092,115.090645 L207.255514,115.353164 C207.282216,115.632464 207.376842,115.902062 207.531936,116.140718 C208.270681,115.792543 209.05003,115.528204 209.853883,115.353164 L212.148188,114.854379 C214.408391,113.835978 216.862925,113.264375 219.36281,113.174263 C221.765674,113.042213 224.174567,113.042213 226.577431,113.174263 C228.124008,113.150819 229.643413,113.561794 230.944903,114.355594 C232.222035,115.104877 233.408563,115.985225 234.483108,116.980776 L235.422943,117.89959 C235.739188,118.319457 236.090453,118.714506 236.473348,119.080922 L236.473348,119.080922 Z" id="Shape"></path>
                <path d="M237.602809,175.649475 C235.558872,174.165124 233.845596,172.301924 232.564368,170.170135 C230.542926,166.837718 229.580591,163.009798 229.795994,159.158257 C229.792586,158.318955 229.876048,157.481408 230.045147,156.657975 C230.238934,155.886612 230.43272,155.062051 230.598822,154.184293 C231.318599,151.391425 232.06606,148.625156 232.785838,145.912085 C233.505615,143.199014 234.336127,140.592337 235.249691,137.666476 C236.495459,133.650066 237.796595,129.686854 239.070047,125.617247 C240.343499,121.54764 241.589268,117.637626 242.86272,113.302031 C243.18544,112.869368 243.420249,112.382058 243.554813,111.865699 C243.697075,111.268631 243.930286,110.695009 244.246907,110.16338 C247.529965,109.637455 250.868094,109.503445 254.18537,109.764399 C257.537123,110.103119 260.665334,111.540175 263.044168,113.834006 C263.551814,114.569813 263.839123,115.425563 263.87468,116.307689 C263.856055,117.167226 263.668187,118.015599 263.321005,118.80797 L262.241339,123.010571 C261.871316,124.383962 261.593902,125.77886 261.410827,127.186573 C260.995539,127.908958 260.803458,128.730217 260.857152,129.553861 C261.244724,129.553861 261.410827,129.553861 261.410827,129.819848 L261.410827,129.287873 C261.410827,129.101682 261.410827,129.021886 261.687664,129.021886 C262.154994,126.711358 262.793341,124.43582 263.597842,122.212609 C264.151517,120.457092 264.594457,118.994161 264.954346,117.770619 C265.314234,116.547077 265.674123,116.015103 266.061696,116.201294 C266.449268,116.387485 266.061696,117.238645 265.646439,118.861168 L264.151517,123.835132 C263.597842,125.590648 263.044168,127.213172 262.518177,128.676102 C262.176403,129.488315 261.898781,130.324106 261.687664,131.176384 C261.687664,131.371441 261.826083,131.105454 262.10292,130.378421 C262.410225,129.619825 262.770948,128.88222 263.182586,128.170726 C263.65321,127.372764 264.040782,126.681197 264.428355,126.069426 C264.815927,125.457655 265.037397,125.324661 265.231183,125.670445 C265.146867,127.258243 264.732708,128.813777 264.013099,130.245428 C263.016484,132.905302 261.770716,135.990755 260.331161,139.288999 L254.794413,152.13619 C254.046952,154.929057 253.52096,157.296345 253.161072,159.211454 C252.814324,160.71815 252.583006,162.247242 252.468978,163.786437 C252.468978,165.089775 252.607397,165.595152 253.161072,165.222769 C253.134815,164.95839 253.182605,164.692073 253.299491,164.451406 C253.399678,164.196722 253.446712,163.925581 253.437909,163.653444 C253.78857,162.766819 254.148459,161.942258 254.517575,161.179761 C254.877464,160.381799 255.348087,159.371047 255.874079,158.147505 L255.874079,164.717393 C256.612633,164.730771 257.349304,164.641176 258.061094,164.451406 C264.486789,159.484721 270.418159,153.955004 275.778689,147.933589 C277.41203,146.01848 279.017687,144.262963 280.567976,142.613841 C282.118266,140.964719 283.696239,139.581585 285.32958,138.171852 C285.976879,137.912923 286.575453,137.553477 287.101339,137.107902 C288.097954,136.416335 288.679313,136.256743 288.873099,136.602526 C289.066885,136.94831 288.873099,137.37389 288.457843,138.437839 L286.962921,141.975472 C286.438618,143.227554 285.847241,144.452734 285.191161,145.646097 C284.554435,146.763245 284.139179,147.508009 283.973077,147.853793 C283.806974,148.199576 282.422787,149.556112 280.429558,151.9234 C278.436328,154.290688 276.138578,156.684574 273.591673,159.131658 C270.675652,162.270309 267.408971,165.586285 263.791629,169.079586 L258.891606,172.750212 C257.424368,173.627971 256.123232,174.452532 254.932831,175.250494 C254.021595,175.927026 252.924896,176.333724 251.776885,176.420838 C249.977441,176.420838 247.458221,176.420838 244.302274,176.819819 C241.995624,177.276603 239.594487,176.857143 237.602809,175.649475 Z M249.340715,90.7728995 C250.490746,90.4395962 251.683197,90.2605782 252.884234,90.2409247 L255.874079,90.2409247 C258.981247,90.1684198 262.062814,90.7970186 264.871295,92.0762377 C266.876117,93.1565429 268.123277,95.1875267 268.137976,97.3959854 C268.209721,99.7471783 266.815779,101.913093 264.594457,102.901924 C262.742278,104.050127 260.483509,104.424638 258.337932,103.939275 C255.81749,103.777206 253.335935,103.257321 250.974056,102.396548 C249.44036,102.274969 248.065414,101.440616 247.292119,100.162254 C246.470816,98.8628869 246.221778,97.3027964 246.600025,95.8266598 C247.314258,94.0490054 248.233557,92.3538429 249.340715,90.7728995 L249.340715,90.7728995 Z" id="Shape"></path>
                <path d="M339.232019,99.4961598 C338.19898,102.47704 336.987208,105.392158 335.603375,108.225462 C334.209766,111.108778 332.973923,114.018545 331.448841,116.954765 C331.132296,117.567647 330.919043,118.229125 330.817773,118.912245 C330.655091,119.755157 330.43546,120.585927 330.16041,121.398774 C330.861742,121.526558 331.555284,121.694361 332.237677,121.90137 C332.911127,122.102914 333.612815,122.192269 334.314944,122.165894 C336.176328,122.172026 338.036836,122.08374 339.889382,121.90137 C341.742256,121.74245 343.607897,121.8314 345.437526,122.165894 C347.856622,122.351061 350.249423,122.615586 352.563341,122.959467 C354.859429,123.304748 357.035757,124.213212 358.90032,125.60471 C359.690267,125.833499 360.193948,126.610448 360.083574,127.429928 C360.069468,128.14767 359.730609,128.819717 359.163266,129.255146 C358.969335,129.37867 358.755937,129.468119 358.532197,129.51967 C358.532197,129.51967 358.216663,129.704837 357.874834,130.048719 C356.638087,130.223887 355.422274,130.525234 354.24619,130.948102 C353.084795,131.3818 351.856369,131.605677 350.617547,131.609412 C346.585371,131.779313 342.565236,132.167847 338.574656,132.773319 C334.5253,133.381725 330.502238,134.043036 326.531766,134.730799 L325.637752,136.159231 C325.374807,136.608922 325.059273,137.164423 324.717444,137.852186 C322.666471,142.719434 320.668088,147.507324 318.774882,152.189405 C316.881677,156.871485 314.962177,161.659375 313.068971,166.526623 C311.175766,171.39387 309.492916,175.890784 308.020423,180.599317 C306.54793,185.30785 305.128026,189.963478 303.760711,194.645558 C302.70893,198.137279 301.762327,201.523191 300.894608,204.829745 C300.026889,208.136299 299.080286,211.495758 298.0548,214.987479 C297.344848,217.923699 296.713779,220.754109 296.109006,223.452257 C295.504232,226.150405 294.846869,228.875006 294.163211,231.652511 C293.877359,233.240013 292.887083,234.609539 291.473753,235.371963 C290.060422,236.134388 288.378518,236.206375 286.905923,235.567471 C284.369181,234.9729 282.151319,233.431872 280.700416,231.255724 C279.394036,228.908351 278.680721,226.274128 278.623149,223.584519 C278.807489,222.900281 278.807489,222.179015 278.623149,221.494777 C278.465181,220.718067 278.465181,219.917221 278.623149,219.140511 C278.964978,215.860409 279.359396,212.50095 279.780108,209.115039 C280.200821,205.729127 280.621533,202.290311 280.963362,198.825043 C281.121129,196.391419 281.384074,193.957795 281.725903,191.524171 C282.094128,189.037162 282.701758,186.592043 283.540225,184.2233 C284.592006,181.101913 285.538608,177.980526 286.406327,174.859139 C287.274047,171.737752 288.220649,168.589913 289.246136,165.468526 C290.271622,162.347139 290.928985,159.622538 291.717821,156.739223 C292.506656,153.855908 293.295492,150.893236 294.163211,147.745396 C294.436687,148.286798 294.656856,148.853818 294.820574,149.438352 C294.932059,149.960902 295.146652,150.455631 295.451642,150.893236 C296.112942,149.417906 296.296896,147.77088 295.977533,146.184703 C295.620246,144.778729 295.190183,143.392496 294.689101,142.031671 C292.351068,141.699077 290.051989,141.131932 287.826232,140.338715 C285.583315,139.485182 283.580081,138.096284 281.988848,136.291493 C280.437471,135.074681 280.279704,134.201751 281.462958,133.64625 C282.579053,133.174522 283.630598,132.561141 284.592006,131.821032 C285.091601,131.635865 285.223074,131.47715 284.960129,131.291983 C284.64664,131.095022 284.298532,130.96033 283.934643,130.895197 L282.646211,130.630672 C282.199204,130.630672 282.17291,130.339696 282.514738,129.995814 C282.856567,129.651932 284.250177,128.990622 286.642978,129.069979 C289.156522,129.171324 291.673996,129.038496 294.163211,128.673192 C295.6071,128.583353 297.040866,128.370978 298.449218,128.038334 C299.072557,127.835298 299.716302,127.702227 300.368718,127.641548 C301.042914,126.995043 301.61092,126.245059 302.051567,125.419543 C302.556524,124.55586 303.127989,123.733316 303.760711,122.959467 C305.312088,118.621268 306.889759,114.362427 308.546314,110.182942 C310.202868,106.003458 311.859423,101.929784 313.594862,97.9354663 C314.278519,96.3747728 314.962177,94.8669841 315.672129,93.3856479 C316.41355,91.82182 317.369477,90.3704148 318.511937,89.0739015 C318.956505,88.8483992 319.25451,88.4086997 319.300773,87.9099945 C319.302483,87.4697036 319.482964,87.0492375 319.800368,86.7460875 C321.009916,84.3124637 322.166875,81.9581972 323.29754,79.7097405 C324.428204,77.4612838 325.664047,75.1070173 327.057656,72.6733935 C327.3854,72.0006047 327.851455,71.4055205 328.424971,70.927533 C328.916231,70.5117227 329.349601,70.0312627 329.713403,69.4991017 C330.387837,70.5093043 330.290172,71.8520694 329.476752,72.7527508 C329.062902,73.1382399 328.827644,73.6799187 328.827644,74.2473133 C328.827644,74.8147078 329.062902,75.3563867 329.476752,75.7418757 C330.90161,74.473252 332.156708,73.0238887 333.210574,71.4301292 C334.341238,69.7900784 335.419314,68.1764801 336.471094,66.6157866 C337.010378,66.0623804 337.486624,65.45019 337.890999,64.7905688 L339.310903,62.4627547 C339.881295,61.7956957 340.590444,61.2628974 341.38817,60.9020612 C343.084232,59.9101857 344.840673,59.0266912 346.647074,58.256818 C348.356218,57.4896975 350.012773,56.8283867 351.564149,56.299338 C353.146555,55.7587184 354.810382,55.4991421 356.481225,55.5322175 C358.34408,55.5266384 360.19107,55.8767118 361.92419,56.5638623 C363.640546,57.2590029 365.184394,58.3245153 366.446848,59.6852493 C367.78028,61.1589467 368.641582,63.0025103 368.918533,64.9757358 C369.087066,66.3233466 369.042694,67.689292 368.78706,69.0229579 C368.372355,70.5853189 367.513328,71.9919201 366.315375,73.07018 C365.791506,73.0958383 365.271647,73.1756151 364.763999,73.3082519 C364.173317,73.4758247 363.563344,73.5647575 362.949677,73.5727762 C361.598407,73.5713941 360.265605,73.8884767 359.058088,74.4986114 C357.855823,75.108073 356.726619,75.8535637 355.692389,76.7206157 C352.166547,79.9250874 348.96087,83.4689653 346.121184,87.3015885 C343.296969,91.0408288 340.980224,95.1417187 339.232019,99.4961598 L339.232019,99.4961598 Z M316.171725,90.634595 C315.921784,90.9515337 315.547933,91.1444037 315.146238,91.1636436 C314.462581,91.1636436 314.278519,90.4758804 314.620348,89.0739015 L316.96056,84.391821 C318.170108,81.9581972 319.590012,79.4452162 320.852149,76.8264254 C322.114286,74.2076346 323.481601,71.8004633 324.717444,69.5520065 C325.376447,68.1775432 326.159823,66.8670272 327.057656,65.6370466 C327.541663,64.8004449 328.33615,64.1914867 329.266396,63.9440909 C330.212999,63.6795666 330.844067,63.9440909 331.21219,64.3408774 C331.580314,64.7376639 331.764375,65.663499 330.817773,66.271905 C329.595162,67.0748505 328.426871,67.9585402 327.320601,68.9171482 C326.282651,70.427173 325.401548,72.0404117 324.691149,73.7314908 C323.586779,76.0857573 322.324642,78.4664762 320.957327,80.9001 C319.300773,83.9685821 317.723101,87.1693264 316.171725,90.634595 Z" id="Shape"></path>
                <path d="M436.540215,139.245125 C438.20493,138.371779 438.896427,138.504104 438.563484,139.6421 C438.205499,140.777182 438.205499,142.000401 438.563484,143.135483 C437.428653,145.389228 435.978891,147.45804 434.260835,149.275367 C431.392403,152.848145 428.088583,156.791433 424.298155,161.131696 C420.507726,165.471959 416.614854,169.732828 412.824425,173.914301 C409.033996,178.095774 406.011898,181.112786 403.988629,183.044733 C402.284917,184.681742 400.479785,186.202291 398.584707,187.596716 C396.971214,188.734712 395.58822,189.713918 394.410113,190.587263 C393.232007,191.460609 391.849013,192.25456 390.875795,192.94265 C389.972637,193.30124 389.048877,193.601751 388.109806,193.842461 C386.940193,194.112063 385.723153,194.066497 384.575488,193.710136 C382.968816,194.56721 381.059959,194.56721 379.453287,193.710136 C377.811739,192.831147 376.316113,191.687656 375.022584,190.322613 C370.063697,185.102802 366.958783,178.303501 366.212398,171.029614 C365.542177,166.654581 365.370266,162.213476 365.700178,157.797104 C366.064082,153.323155 366.827116,148.893502 367.979557,144.564594 C369.82355,138.636429 371.923652,132.390685 374.279864,125.77443 C374.512363,125.104296 374.803841,124.457606 375.150639,123.842483 C375.572685,123.086125 375.793582,122.227853 375.790914,121.354771 L375.790914,120.322636 C374.945751,120.322636 374.43353,120.560821 374.279864,121.090121 C373.777226,122.229438 373.357744,123.406001 373.024925,124.609969 C372.512705,126.277265 372.000485,128.050421 371.513876,129.902973 C370.766963,132.204171 370.176474,134.556457 369.746717,136.942668 C369.388163,137.136745 369.132053,137.136745 368.978387,136.942668 C368.645444,136.598623 368.645444,136.069322 368.978387,135.381232 C369.004347,134.808748 369.090218,134.240851 369.234497,133.687471 C369.433854,132.788762 369.690525,131.904664 370.002827,131.040969 C369.644273,131.755524 369.388163,132.099569 369.234497,132.099569 C369.170749,130.875892 369.2568,129.648793 369.490607,128.447397 C369.962612,127.340275 370.555512,126.292519 371.257766,125.324524 L371.257766,124.795224 C371.608729,123.158111 372.070872,121.548582 372.64076,119.97859 C373.562756,117.093903 374.535974,114.023961 375.534804,110.715833 C376.533633,107.407706 377.48124,104.496554 378.300792,101.982377 C379.120344,99.4681999 379.658175,98.303739 379.837452,98.4625292 C380.016729,98.6213193 379.837452,99.52113 379.581342,101.109031 C379.325232,102.696932 378.813012,104.390694 378.300792,106.402035 C377.788572,108.413377 377.045853,110.927554 376.047024,114.341541 C376.047024,114.870841 376.20069,115.135492 376.559244,115.135492 C377.029259,113.797162 377.576612,112.489201 378.198348,111.218669 C378.788732,109.965797 379.252194,108.653212 379.581342,107.301846 C380.417968,104.867064 381.339964,102.432282 382.347331,99.9975003 C383.371771,97.5891835 384.447433,95.0485416 385.625539,92.4549697 C385.948064,92.1480895 386.133447,91.7170677 386.137759,91.2640438 C386.144787,90.7761843 386.231371,90.2930414 386.393869,89.8349327 C386.102728,90.176519 385.681835,90.3698203 385.241374,90.3642331 L384.3706,90.3642331 C384.046194,90.3642331 383.790084,90.6288833 383.60227,91.1581837 C383.448604,91.6610191 382.936384,91.581624 382.091221,90.8935335 C380.352545,89.2068215 378.152173,88.1161631 375.790914,87.7706611 C372.256724,86.8875656 369.574979,83.9080377 368.978387,80.2016655 C371.817858,78.4742936 374.770261,76.9532887 377.814183,75.6496821 C380.902876,74.3199213 384.111354,73.3093246 387.392698,72.6326698 C390.020097,72.1686654 392.270154,70.4248507 393.436895,67.9483613 C393.449004,68.3832661 393.491803,68.8166786 393.56495,69.2451472 C393.717235,69.8481569 394.148941,70.3339122 394.717445,70.5419332 C394.871111,70.0390978 395.383331,69.7744476 396.228495,69.7744476 C397.113901,69.3614196 397.969761,68.8838445 398.789595,68.3453366 C399.122538,68.0806864 399.122538,67.2602708 398.789595,65.8576247 C398.695138,65.1392492 398.337645,64.4856702 397.790766,64.0315383 C398.149236,63.6679943 398.525349,63.323505 398.91765,62.9994026 C399.359145,62.6255433 399.747164,62.1889443 400.070145,61.7026166 C399.662057,61.3771221 399.387707,60.9046245 399.301815,60.3793656 L398.533485,62.0731269 C398.200542,62.8670775 397.867599,63.6874931 397.534656,64.5608387 C397.201713,65.4341844 396.689493,66.5721802 396.023607,67.9483613 C395.84433,67.9483613 395.84433,67.4190609 396.023607,66.3869251 C396.199456,65.2399055 396.456251,64.1077114 396.791937,62.9994026 C397.12488,61.7820116 397.406601,60.6175508 397.662711,59.4795549 C397.801071,58.7176246 398.015647,57.9726063 398.302986,57.2564933 C398.521736,56.1801771 398.85678,55.132654 399.301815,54.1336209 L399.301815,53.6043205 C399.313097,53.4064097 399.40644,53.2231445 399.557925,53.1014851 C400.207701,52.3175628 400.719157,51.421782 401.068974,50.4549832 C401.914137,48.7082918 402.887356,46.9086705 403.963018,44.976724 C405.03868,43.0447776 406.06312,41.3245513 406.985116,39.6837201 C407.907112,38.0428888 408.470554,37.4341934 408.649831,37.5929835 C408.600277,38.2165234 408.471101,38.8305471 408.265666,39.4190699 C407.960705,40.4124179 407.575172,41.3774035 407.113171,42.303757 L405.730177,45.2943043 C405.400438,46.0181506 405.109735,46.760307 404.859403,47.5173659 C404.01424,48.5495017 403.834963,49.1052671 404.347183,49.2111272 C404.859403,49.3169873 405.013069,49.7668926 404.859403,50.6402383 C404.592712,51.0536613 404.292861,51.4431864 403.963018,51.8046992 C403.480457,52.1665761 402.916077,52.3943884 402.323914,52.4663247 C401.692703,53.4675705 401.429234,54.6692473 401.581194,55.8538472 C401.676965,56.3096855 401.841152,56.7472368 402.067803,57.1506332 C403.092244,57.1506332 403.706908,56.859518 403.963018,56.2508225 C404.219128,55.642127 404.500849,54.9805015 404.859403,54.292411 L408.265666,46.7234154 C409.341329,44.2886335 410.570657,41.8538517 411.92804,39.4190699 C412.856043,37.1863469 414.758676,35.5446726 417.050241,34.9994116 C419.901978,34.474236 422.833604,34.6556361 425.604316,35.528712 C428.836107,36.6306204 431.774079,38.4974972 434.184002,40.980506 C433.697393,43.2564978 433.185173,45.3736993 432.672953,47.3850408 C432.160733,49.3963824 431.494847,51.592979 430.649684,54.0277608 C429.804521,56.4625427 428.600803,58.235699 427.49953,60.4058306 C426.464055,62.4361937 425.664563,64.5859658 425.117707,66.8103654 C426.11885,67.620837 427.38845,67.9916012 428.652025,67.8425012 C429.82331,67.657224 431.01506,67.657224 432.186344,67.8425012 C432.945511,67.8297005 433.703081,67.9186587 434.440112,68.1071514 C435.216792,68.3059529 435.978566,68.5624484 436.719492,68.874637 C437.370097,69.217178 437.899053,69.7637725 438.230541,70.4360731 C438.561525,71.2116282 438.463717,72.1111434 437.974431,72.7914599 L436.975602,74.3528961 C436.672571,74.841258 436.222646,75.2132002 435.695051,75.4114969 C434.47479,76.2101743 433.168283,76.858565 431.802179,77.3434433 C430.521629,77.7933487 429.061801,78.269719 427.371475,78.7990194 C426.021279,79.6763987 424.529037,80.2949921 422.966383,80.6251058 C421.352889,80.969151 419.713785,81.3925914 418.04907,81.9218918 C416.358744,86.0768999 414.719639,90.0466529 413.131757,93.7782207 C411.543875,97.5097885 409.802327,101.294286 408.009556,105.131714 C406.114542,108.723241 404.404752,112.415862 402.887356,116.194092 C401.299473,120.110915 399.814035,124.133598 398.482263,128.050421 C396.61266,133.10524 394.819889,138.186524 393.05273,143.294273 C391.308123,148.334754 389.996887,153.524339 389.134247,158.802774 C388.622027,161.078766 388.135417,163.381223 387.623197,165.73661 C387.124301,168.000452 386.951698,170.328021 387.110977,172.64398 L387.110977,175.766852 C387.505445,177.227394 388.296417,178.540661 389.390357,179.55135 C390.123282,180.117833 391.04956,180.347553 391.951457,180.18651 C392.842139,180.013625 393.704483,179.710652 394.512557,179.2867 C395.35772,178.836794 396.177273,178.466284 397.073658,178.095774 L400.479921,174.708251 C402.426358,172.80277 404.78257,170.447383 407.548558,167.668556 C410.314547,164.889729 413.259812,161.899182 416.384355,158.670449 C419.508897,155.441717 422.428551,152.477635 425.220151,149.698808 C428.01175,146.919981 430.342352,144.405804 432.519287,142.526787 C433.664087,141.198906 435.024919,140.088269 436.540215,139.245125 L436.540215,139.245125 Z" id="Path"></path>
                <path d="M639.000853,16.1396013 C644.639877,16.1396013 647.45939,17.8884882 647.45939,21.4392585 C647.99644,25.0960221 645.150075,27.4543695 639.000853,28.4878027 C635.644291,28.8322804 632.234024,29.1502599 628.796904,29.4152427 C625.359785,29.6802256 621.895813,29.9717067 618.351283,30.3161844 C610.966847,30.6606622 603.716673,30.925645 596.681319,31.111133 C589.418248,31.2873402 582.172683,31.8979209 574.984501,32.9395148 L587.417207,32.9395148 C580.005918,34.158436 572.702039,35.0063811 565.451865,35.5893434 C558.042022,36.1510813 550.699099,37.3750185 543.513375,39.2461069 C546.397978,40.6012574 549.659117,40.965045 552.777487,40.2795401 C555.543935,39.596984 558.38442,39.249944 561.236023,39.2461069 C564.565733,39.2461069 567.788032,39.2461069 570.876069,39.3785984 C574.127156,39.4819836 577.362351,39.8721805 580.542968,40.544523 C579.2518,40.5315049 577.963388,40.6648703 576.703061,40.9419972 C575.442734,41.2191242 574.154323,41.3524896 572.863154,41.3394715 C568.271377,41.6839493 563.706453,41.842939 559.114676,41.842939 C554.522899,41.842939 550.038532,42.028427 545.688427,42.3729047 C544.342261,42.2323324 542.998049,42.6552682 541.982783,43.5388293 C541.127979,44.5341202 540.414323,45.6395132 539.861436,46.8246168 C537.731138,54.650444 535.39497,62.299616 532.852934,69.7721327 C530.310898,77.2446495 527.795714,84.9026542 525.307383,92.7461469 C524.42125,95.1839893 523.588823,97.6748282 522.8101,100.192165 C522.031378,102.709503 521.252656,105.200341 520.554491,107.611686 C517.547011,117.02741 514.548482,126.381305 511.558904,135.673371 C508.569326,144.965436 505.660306,154.319331 502.831843,163.735056 C501.247546,168.451751 499.931773,173.088951 498.857673,177.699653 C497.783574,182.310355 496.736326,186.894558 495.689079,191.399267 C495.585062,193.831615 494.307271,196.067805 492.251959,197.414378 C490.479694,198.288821 488.465757,197.758855 486.156442,195.850979 C483.527305,193.809754 481.32877,191.280131 479.684991,188.40496 C478.1356,185.47218 477.368579,182.198344 477.456234,178.892076 C477.067577,173.483841 477.328969,168.04922 478.234956,162.701623 C479.12136,157.604144 480.268533,152.554183 481.672076,147.571101 C485.028638,137.978722 488.036117,128.386342 490.667662,118.714467 C493.299207,109.042593 495.877046,99.3707185 498.347476,89.5663526 C498.690408,88.7182859 498.907467,87.8258035 498.991936,86.9165239 C499.038368,86.1832585 499.269078,85.4729387 499.663248,84.8496576 C498.777116,86.5720462 497.944688,88.3739297 497.139114,90.1493149 C496.333539,91.9247001 495.501111,93.7530818 494.641831,95.4489721 C494.358203,96.6602896 493.953431,97.8408343 493.433469,98.9732442 C492.94339,100.114423 492.548249,101.293072 492.251959,102.497516 C492.251959,100.58964 492.251959,98.6022682 492.520484,96.5089036 C492.677274,94.4922083 492.937179,92.4846141 493.299207,90.4937926 C494.534421,85.6181079 495.984456,80.6364301 497.273376,75.4957626 C498.562296,70.355095 500.092888,65.2674241 501.516071,60.2327497 C501.885725,59.4949965 502.326339,58.7939889 502.831843,58.139385 C503.542164,57.1533839 504.162214,56.1069959 504.684665,55.0125873 C505.458302,57.0272199 505.458302,59.2515502 504.684665,61.2661828 C503.938504,62.6365722 503.533513,64.1625061 503.503155,65.7178949 C503.133209,67.1191933 502.952627,68.5626069 502.966105,70.0106173 L502.966105,74.5683225 C504.550403,70.5935796 506.268962,66.6188367 508.121785,62.3261143 C509.974607,58.0333919 511.773724,53.7141712 513.492284,49.0769711 C506.216069,49.8656438 499.116393,51.8072878 492.466779,54.8270993 C485.856314,57.8082251 479.098953,60.4613652 472.219997,62.7765851 C473.319211,60.9298903 474.674993,59.2441393 476.247871,57.768409 C477.702444,56.6026785 479.357933,55.7050674 481.135026,55.1185804 C485.726803,53.7141712 490.184317,52.4687518 494.561274,51.3293255 C498.938231,50.1898992 503.154073,48.9444797 507.369915,47.5400705 C508.793097,47.1955928 510.055164,46.7981185 511.478347,46.3741459 C513.177584,45.5577242 514.466945,44.0940401 515.049729,42.3199081 C513.928354,42.6257997 512.775095,42.8036195 511.612609,42.8498739 C510.787363,42.834238 509.96957,43.0065201 509.222737,43.3533413 C502.187383,45.4378732 495.26839,47.6637292 488.465757,50.0309094 C481.663125,52.3980897 474.83364,54.7034406 467.977302,56.9469622 C466.205037,57.8214056 464.674445,58.5103611 463.358673,59.0403268 C461.933907,59.5784071 460.470978,60.0123823 458.981716,60.3387428 C455.109753,61.9097351 450.748869,61.8136779 446.951797,60.0737599 C442.916965,58.2638318 439.743548,54.9899309 438.090474,50.9318512 C437.545796,48.95979 437.106598,46.960825 436.774701,44.9432385 C436.381578,42.7294742 435.843399,40.5431952 435.163551,38.3981618 C442.225758,36.3312954 449.073145,34.2644291 455.678859,32.2770576 C462.284573,30.2896862 468.943992,28.328813 475.630264,26.3944381 C482.343388,25.0165272 489.13707,23.5414559 496.011309,21.9692243 C503.070294,20.3802909 510.26005,19.4224773 517.493306,19.1074094 C518.936867,19.0234839 520.341998,18.6156615 521.601738,17.9149865 C522.367743,16.5926713 522.860582,15.1336565 523.051773,13.6222641 C523.379038,12.5153204 523.594902,11.379231 523.696233,10.2304834 C523.8051,9.08066668 524.029985,7.94444229 524.367545,6.8387028 L524.367545,3.73840331 C524.393882,2.54588245 524.574357,1.36155553 524.904595,0.214131234 C527.942424,-0.414022963 531.104829,0.356397311 533.497394,2.30749585 C535.699299,4.21537246 537.847498,6.14974736 539.968846,8.05762397 C541.294208,8.84773 542.176052,10.1970465 542.358718,11.7143875 C543.405965,13.9667418 544.668033,15.2651578 546.171772,15.6096356 C547.862355,15.9910012 549.593514,16.1689516 551.327452,16.1396013 C562.265369,16.1396013 573.203286,16.0512737 584.141203,15.8746184 C595.07912,15.6979632 605.918577,15.6096356 616.659576,15.6096356 L627.910772,15.6096356 C631.535859,15.6096356 635.295209,15.7951236 639.000853,16.1396013 Z M480.571123,135.938354 C480.917595,138.342288 480.734411,140.791691 480.034073,143.119389 C479.070044,146.013697 477.734463,148.774296 476.059904,151.333858 C476.758069,148.896016 477.483086,146.35218 478.181251,143.649355 C478.879416,140.94653 479.684991,138.376196 480.571123,135.938354 Z M490.076907,110.102524 C489.061019,107.828472 489.480563,105.178813 491.151007,103.318963 C491.163889,104.455187 491.074024,105.59028 490.882482,106.710744 C490.694514,107.585187 490.425989,108.724614 490.076907,110.102524 Z M492.198254,103.318963 L491.151007,103.318963 C491.437207,103.345981 491.721234,103.249333 491.929729,103.05398 C491.943848,102.849006 492.040554,102.658145 492.198254,102.524015 L492.198254,103.318963 L492.198254,103.318963 L492.198254,103.318963 Z M565.72039,34.158436 L565.72039,33.3634874 L562.82032,33.3634874 L562.82032,34.158436 L565.72039,34.158436 Z" id="Shape"></path>
                <path d="M627.018239,135.435938 C627.704275,135.435938 628.548627,136.109485 629.498523,137.429636 C630.456781,138.693799 630.283196,140.501673 629.102733,141.551741 C628.575013,142.252229 627.071011,144.245927 624.537955,147.398124 C622.0049,150.550322 619.260756,154.079706 616.226366,157.878508 C613.191977,161.67731 610.157587,165.206694 607.149584,168.493601 C605.087522,170.924923 602.676635,173.023253 599.998979,174.717171 C598.19341,175.628836 596.262872,176.255625 594.273217,176.576159 C592.304276,176.919072 590.306037,177.054493 588.309982,176.980287 C586.495908,176.908431 584.708897,176.507006 583.032783,175.794845 C581.580713,175.220533 580.286191,174.296202 579.259585,173.100659 C578.14505,171.723269 577.383396,170.084546 577.043162,168.33195 C576.620986,166.392136 576.225196,164.42538 575.882178,162.485566 C575.509442,160.206663 575.332861,157.898809 575.354458,155.58845 L567.306729,161.165415 C566.545265,161.463512 565.80472,161.81458 565.090305,162.216147 L563.401602,163.293822 C561.587693,165.001271 559.475213,166.344815 557.174506,167.254275 C554.910639,168.140769 552.55627,168.764354 550.155831,169.113264 C547.497047,169.82176 544.695123,169.737614 542.081716,168.870787 C539.478586,168.065865 537.051084,166.757947 534.931111,165.018101 C532.983138,163.353432 530.948447,161.797514 528.835946,160.357159 C526.823838,158.90117 525.655893,156.516071 525.722399,153.99888 C525.880715,150.280903 525.880715,146.61681 525.722399,142.979659 C525.545637,139.275192 525.892212,135.564037 526.751453,131.960438 C528.243323,126.133911 531.095158,120.763048 535.063041,116.307217 C535.624576,115.567098 536.232742,114.865122 536.883675,114.205752 L538.440449,112.589241 L539.759749,111.269089 C540.102767,111.107438 540.129153,111.269089 539.891679,111.538508 C539.6061,111.908501 539.297634,112.259462 538.968169,112.589241 C538.441384,113.133269 538.004717,113.761121 537.675255,114.448229 C537.675255,114.825415 538.202975,114.636822 539.232029,113.936334 C539.390345,113.936334 539.759749,113.666915 540.261083,113.128078 C540.880082,112.516751 541.531946,111.9411 542.213646,111.403799 C542.925911,110.836368 543.665652,110.305843 544.43007,109.814229 C544.889553,109.467215 545.42307,109.236386 545.986844,109.140683 C546.857582,109.517869 546.80481,110.002822 545.854914,110.622485 C544.905018,111.242148 544.43007,111.727101 544.43007,112.077345 C544.404068,112.291608 544.476283,112.506143 544.625798,112.658808 C544.775314,112.811473 544.985422,112.88521 545.195264,112.858659 L545.986844,112.858659 C546.763196,112.238917 547.503275,111.573208 548.203268,110.864962 C548.837843,110.122411 549.160182,109.154383 549.100392,108.170776 C546.884688,107.47058 544.501036,107.565653 542.345576,108.440194 C543.001791,106.862124 544.577919,105.89435 546.250704,106.042369 C548.575009,106.389657 550.920346,106.569713 553.269379,106.581206 L560.789388,106.581206 C561.604382,106.727096 562.395023,106.990148 563.137742,107.36252 C563.632742,107.716308 564.153139,108.031521 564.694515,108.305485 C565.222235,108.574903 565.380551,108.790438 565.222235,108.979031 C565.063919,109.167624 564.879217,109.221508 564.166795,109.221508 C563.38731,109.210887 562.610281,109.129744 561.844828,108.979031 C560.9771,108.794206 560.092617,108.703895 559.206228,108.709613 C558.33549,108.709613 557.834156,108.709613 557.649454,108.979031 C556.963418,108.979031 556.778716,109.221508 557.14812,109.760345 C557.352994,109.958968 557.632087,110.057234 557.913314,110.029764 L560.261668,110.029764 C560.763002,110.029764 561.976758,110.029764 563.902936,110.299183 C566.009189,110.503299 568.093249,110.900038 570.130031,111.484624 C572.316841,112.084361 574.445374,112.886977 576.489056,113.88245 C578.284994,114.671003 579.790495,116.019605 580.789973,117.735136 C582.047859,117.438424 583.155586,116.681186 583.903521,115.606729 C584.59104,114.544654 585.115993,113.38178 585.460295,112.158171 C585.794517,111.080496 586.190307,109.97588 586.647664,108.844322 C587.06984,107.685822 587.46563,106.662031 587.808648,105.77295 C588.03145,105.490091 588.353076,105.306573 588.705772,105.261055 C588.950991,105.259028 589.186481,105.162847 589.365422,104.991636 C591.57115,103.92848 594.106418,103.831161 596.384097,104.722217 C598.527691,105.647229 600.406796,107.111737 601.845998,108.979031 C602.532034,109.841171 603.297228,110.918845 604.167966,112.158171 C604.819028,110.869802 605.38324,109.537576 605.85667,108.170776 L607.3079,104.18338 C607.584217,104.478007 607.884316,104.748378 608.205024,104.991636 C608.468884,105.153287 608.416112,105.422706 608.073094,105.77295 C607.545374,108.467136 606.938496,111.403799 606.25246,114.151869 C605.566424,116.899938 604.774844,119.67495 603.904106,122.503845 C602.69035,126.096093 601.529366,129.544651 600.421155,132.84952 C599.286557,136.217252 598.099187,139.584985 596.911817,142.925775 C596.384097,144.515345 595.803605,146.374334 595.223113,148.502741 C594.633625,150.468126 594.149167,152.464767 593.771883,154.483834 C593.472144,156.014512 593.260692,157.561842 593.13862,159.117834 C593.13862,160.357159 593.27055,160.976822 593.771883,160.976822 C594.299603,159.575845 594.774551,158.094043 595.223113,156.585299 C595.671675,155.076554 596.041079,153.648636 596.384097,152.220717 C596.697793,151.453444 596.910728,150.647178 597.017361,149.822892 C597.127984,149.091423 597.350587,148.382271 597.677011,147.721427 C597.667745,147.574312 597.71508,147.429314 597.808941,147.317299 C597.902801,147.205284 597.950137,147.060286 597.940871,146.913171 L597.940871,146.643752 L599.497645,143.464613 C600.368383,141.68645 601.054419,140.905136 601.582138,141.066787 C602.109858,141.228438 601.450208,142.171403 600.658629,143.760973 C600.096587,144.917332 599.620303,146.115116 599.233785,147.344241 C599.218306,147.796207 599.12913,148.242375 598.969925,148.664392 C598.834448,149.116294 598.666893,149.557514 598.468591,149.984543 C598.099187,151.412461 597.756169,152.948147 597.413151,154.645485 C597.110179,155.628782 597.020147,156.667571 597.149291,157.689915 C597.149291,158.92924 598.204731,159.279485 600.289225,158.740647 C603.158982,156.982532 605.854274,154.943291 608.336954,152.651787 C611.274594,149.975562 614.089101,147.362202 616.780472,144.811706 C619.471844,142.26121 621.767426,140.051977 623.667217,138.184008 C625.435079,136.378903 626.569677,135.435938 627.018239,135.435938 Z M572.953332,128.026927 C573.646977,127.349909 574.258255,126.590067 574.773966,125.76381 C575.385703,124.851818 576.083903,124.003547 576.85846,123.231275 L574.510106,121.641706 C571.772048,120.031415 568.337758,120.355105 565.934657,122.449962 C564.07586,123.635665 562.311345,124.968914 560.657458,126.437357 L555.987137,130.667229 C549.104171,135.972112 544.461457,143.757358 543.005226,152.436252 C542.638261,153.310498 542.966314,154.326942 543.77042,154.807136 C546.178781,154.043316 548.450754,152.887947 550.498849,151.38552 C558.885213,144.594841 566.394713,136.746085 572.847788,128.026927 L572.953332,128.026927 Z" id="Shape"></path>
                <path d="M701.662018,15.2015576 C702.488885,15.816012 703.037204,16.7385815 703.184552,17.7632826 C703.331899,18.7879838 703.066005,19.8294839 702.446236,20.6552458 C702.243312,21.1189921 701.979552,21.5531913 701.662018,21.9462154 C698.842338,25.2577623 696.461078,28.9241848 694.577918,32.8535918 C692.774217,36.6474618 690.944375,40.4676781 689.062253,44.2615482 C688.502756,45.7439992 687.811581,47.1725011 686.997146,48.5296519 C686.134507,50.0050458 685.271867,51.5331324 684.383087,53.0875652 C679.072577,63.6240339 674.351178,74.4517303 670.241027,85.5198847 L666.136954,95.8212956 C664.751503,99.1936245 663.522895,102.434222 662.268147,105.569434 C660.525441,110.048308 658.852443,114.632568 657.249154,119.322213 C655.645864,124.011858 654.060001,128.596117 652.491566,133.074992 C652.151846,134.343259 652.151846,135.679633 652.491566,136.947901 C652.988161,137.571085 653.222761,138.365547 653.145081,139.160991 C653.007635,140.057495 652.78888,140.939401 652.491566,141.795623 C651.786512,143.800478 651.184479,145.840634 650.687865,147.907969 C650.194977,149.967666 649.592879,151.999248 648.884164,153.993969 C648.242349,155.592802 647.726652,157.240164 647.341869,158.920731 C647.020703,160.15138 646.845212,161.416021 646.819058,162.688255 C646.819058,163.821147 647.080464,164.479805 647.603275,164.637882 C649.198885,163.764385 650.667792,162.67398 651.968754,161.397285 C654.582813,159.236887 657.196872,156.813026 660.229181,154.125701 C663.261489,151.438376 666.999594,147.776238 671.809463,143.112939 C672.14929,143.112939 673.090352,142.164472 674.632647,140.24119 C675.481621,139.356253 676.259568,138.404798 676.959159,137.395788 C677.316126,137.754559 677.576954,138.198736 677.717236,138.686758 C678.04915,139.687199 678.13878,140.753154 677.978642,141.795623 C676.751757,143.925799 675.380475,145.968099 673.874569,147.907969 L665.352737,159.579389 C662.268147,163.812364 659.270693,167.790659 656.360373,171.514272 C654.641782,173.862888 652.745274,176.073809 650.687865,178.127198 C647.275149,180.623351 643.439471,182.471467 639.368989,183.580886 C637.414443,184.139094 635.333347,184.046695 633.435075,183.317423 L630.821016,181.76299 C629.853814,181.26241 628.965034,180.814523 628.206957,180.472021 C625.396076,178.979359 623.548094,176.130791 623.318666,172.936973 C623.332836,171.855193 623.289205,170.773428 623.187963,169.696376 C623.115691,168.702263 623.159559,167.703035 623.318666,166.719242 C624.181306,163.267874 624.991664,159.895545 625.775882,156.602255 C626.5601,153.308965 627.370458,150.015675 628.206957,146.748731 C628.546784,145.167952 628.80819,143.745251 628.991175,142.454281 C629.164819,141.096735 629.417953,139.750724 629.749252,138.423294 C630.092549,137.452866 629.903876,136.371968 629.25258,135.577892 C628.732647,134.535239 628.506599,133.368767 628.599066,132.205563 C628.599066,130.993632 628.80819,129.702663 628.991175,128.306308 C629.156596,126.889708 629.499142,125.499886 630.010658,124.169936 C630.690313,122.079794 631.422249,119.866703 632.206467,117.530663 C632.964544,115.212187 633.801043,112.999096 634.637542,110.917737 C635.474041,108.836378 636.101415,107.466369 636.441243,106.781365 C636.329959,108.182708 636.075929,109.568795 635.683166,110.917737 C635.160354,112.999096 634.611402,115.212187 634.010168,117.530663 C633.408934,119.849139 632.859982,122.035884 632.33717,124.038204 C631.960118,125.266741 631.697575,126.528045 631.552952,127.805728 C632.415592,127.621303 632.886123,127.331494 632.964544,126.883606 C633.05953,126.485843 633.190791,126.097779 633.356653,125.724368 C635.256622,120.543988 636.888252,115.267611 638.244944,109.916577 C639.621682,104.541927 640.911284,99.2726635 642.113751,94.1087849 C642.598042,92.8585181 642.906013,91.5459904 643.028672,90.2095296 C643.134674,88.8168438 643.34439,87.4341582 643.656046,86.0731574 C643.995874,86.0731574 644.178858,86.0731574 644.178858,85.9414258 C644.178858,85.8096942 643.995874,85.9414258 643.656046,85.9414258 C642.781012,84.3065744 642.732456,82.3490394 643.525343,80.6721619 C644.309561,79.117729 645.041497,77.4579109 645.721153,75.7454001 C646.400808,73.4796166 647.106604,71.2401794 647.78626,69.0007423 C648.465915,66.7613051 649.250133,64.4955216 650.112772,62.2560844 C650.265262,65.4100031 649.692707,68.5567875 648.439774,71.45095 C647.117407,74.602412 646.544491,78.0218517 646.766776,81.4362051 C647.943103,79.03869 648.988727,76.8519455 649.851366,74.9550105 C650.714006,73.0580755 651.550505,71.0557552 652.465425,69.0007423 C654.222793,65.2813492 655.767611,61.4636784 657.09231,57.5664396 C658.469048,53.5793632 659.932921,49.6010689 661.483929,45.6315568 C662.346569,43.3921196 663.104646,41.2317214 663.810442,39.1503622 C664.516238,37.0690029 665.248174,34.8295657 666.110814,32.4057043 C667.161405,28.9944167 669.124027,25.9407174 671.783322,23.5796873 C672.330282,23.0185287 672.765132,22.3566474 673.064211,21.6300596 C673.408847,20.8606609 673.939053,20.1904239 674.606506,19.680432 C676.481952,16.0209319 680.300837,13.7980144 684.383087,13.9896269 C686.53299,13.8465949 688.689911,13.8465949 690.839813,13.9896269 C692.981771,14.1065678 695.12844,14.1065678 697.270399,13.9896269 C698.818742,13.9652182 700.341984,14.3855787 701.662018,15.2015576 Z" id="Path"></path>
                <path d="M744.878932,136.961167 C745.212703,137.801677 744.878932,139.304407 743.595198,141.494826 C742.233199,143.886597 740.440547,146.01027 738.306214,147.760445 C737.125179,148.932065 735.969818,150.027275 734.891482,151.020605 C733.813145,152.013934 732.555086,153.185554 731.220003,154.535464 C730.180578,155.556653 729.211326,156.645815 728.318764,157.795623 C727.322288,159.023402 726.259511,160.19674 725.135104,161.310483 C720.489404,167.239471 714.402755,171.90171 707.445251,174.86052 C704.490022,176.167162 701.307684,176.893697 698.073993,177 C694.890333,177 691.680998,177 688.471664,176.87265 C687.817542,176.528541 687.139759,176.230651 686.443364,175.9812 L684.671811,175.36992 L679.126081,171.345661 C677.21296,169.986273 675.486753,168.385137 673.991145,166.582772 C673.32663,166.097449 672.876088,165.376856 672.733086,164.570642 C672.55657,163.733096 672.470502,162.879278 672.476339,162.023643 C671.618604,158.711497 671.707507,155.227841 672.733086,151.962994 C673.402026,150.803179 673.402026,149.378721 672.733086,148.218905 C671.874056,145.865536 671.874056,143.287855 672.733086,140.934486 C673.587064,138.370812 674.598836,135.861546 675.762698,133.420838 C676.990778,130.827785 678.515617,128.383563 680.307116,126.136419 C679.793622,127.639149 679.254454,129.065468 678.663936,130.389908 C678.073419,131.714348 677.534251,133.166138 677.020757,134.668867 C676.633119,135.992753 676.170234,137.293805 675.634324,138.565777 C675.022241,140.190736 674.802412,141.935349 674.992457,143.659776 C676.674602,140.687174 678.11689,137.58713 679.305803,134.388697 C680.328782,131.486781 681.681112,128.709689 683.336728,126.110949 C685.185305,123.563949 686.931183,121.16977 688.471664,118.82653 C690.012144,116.483291 691.809372,114.165521 693.606599,111.822281 C694.234965,111.187108 695.185422,110.986495 696.020019,111.312881 C696.809375,111.625238 697.703392,111.529873 698.407764,111.058181 C701.263929,109.232989 704.379409,107.8422 707.650648,106.932042 C710.937007,105.989652 714.172017,105.200082 717.381351,104.537863 C720.792316,103.689877 724.399493,104.134909 727.497175,105.785892 C728.287,105.937467 729.02743,106.278498 729.653848,106.779222 C730.171951,107.240052 730.720935,107.665526 731.297027,108.052722 C731.88444,108.306937 732.371511,108.745384 732.68346,109.300752 C732.904088,109.761087 733.19894,110.182633 733.556399,110.548782 C735.764421,111.720401 736.894107,113.095781 736.971131,114.700391 C737.038886,116.353022 736.83068,118.005394 736.354939,119.59063 C735.661722,121.09336 735.04553,122.519679 734.455012,123.844119 C733.843934,125.248637 732.9731,126.527197 731.887545,127.613679 C729.988395,129.661538 727.964883,131.592366 725.82832,133.395368 C723.661793,135.233794 721.380797,136.935156 718.998856,138.489367 C715.290159,140.568447 711.114205,141.689506 706.854733,141.749526 C704.826434,141.749526 703.234604,141.749526 702.053568,141.749526 C701.042969,141.761833 700.066067,142.11179 699.280703,142.742856 C698.563044,143.365769 698.075184,144.208237 697.89427,145.137036 C697.637524,146.130365 697.252404,147.480275 696.73891,149.135825 C696.071368,151.479064 695.403827,153.694954 694.71061,155.783494 C694.017394,157.872033 693.452551,160.087923 692.939058,162.431163 C692.602876,162.9539 692.518214,163.597799 692.707985,164.188592 C692.86072,164.848602 692.93823,165.523544 692.939058,166.200722 C694.622774,166.230239 696.299029,165.971758 697.89427,165.436622 C699.346941,164.920564 700.741008,164.254698 702.053568,163.449962 C704.415639,162.100053 706.906083,160.775613 709.5249,159.425703 C712.168065,158.054047 714.738882,156.549357 717.227303,154.917514 C720.924457,152.370514 724.467562,149.823515 727.85662,147.276515 C731.245678,144.729516 734.583386,142.004226 737.972443,138.998767 L738.22919,138.998767 L741.258802,137.241337 C741.991608,136.937722 742.746984,136.690776 743.518174,136.502707 C744.262739,136.553647 744.673534,136.757407 744.878932,136.961167 Z M718.074568,114.394751 C711.761553,118.332394 707.226524,124.537739 705.416951,131.714348 C708.21047,130.379511 710.802865,128.665025 713.119355,126.620349 C715.184631,124.721495 717.043382,122.612923 718.665085,120.32926 C719.030081,120.122377 719.269847,119.751324 719.306952,119.33593 C719.365472,118.857732 719.592881,118.415565 719.948819,118.0879 C720.369724,116.555066 719.547087,114.955991 718.048893,114.394751 L718.074568,114.394751 Z" id="Shape"></path>
            </g>
        </g>
    </g>
</svg>